# xmcd
#
# Track frame offsets: 
#        150
#        19291
#        37299
#        58607
#        81326
#        107857
#        123643
#        146921
#        174970
#        190202
#        213885
#        230584
#
# Disc length: 3315 seconds
#
# Revision: 0
# Processed by: cddbd v1.5.2PL0 Copyright (c) Steve Scherf et al.
# Submitted via: ExactAudioCopy v0.99pb4
#
DISCID=b30cf10c
DTITLE=Adjiri Odametey - Etoo
DYEAR=2008
DGENRE=Jazz
TTITLE0=Fofoi
TTITLE1=Awula
TTITLE2=Etoo
TTITLE3=Noko
TTITLE4=Oyai
TTITLE5=Naaki
TTITLE6=Saneko
TTITLE7=Atuu
TTITLE8=Selina
TTITLE9=Menihewo
TTITLE10=Atsele
TTITLE11=Smile
EXTD=
EXTT0=
EXTT1=
EXTT2=
EXTT3=
EXTT4=
EXTT5=
EXTT6=
EXTT7=
EXTT8=
EXTT9=
EXTT10=
EXTT11=
PLAYORDER=
